 <svg  version="1.0" xmlns="http://www.w3.org/2000/svg"  width="300.000000pt" height="73.000000pt" viewBox="0 0 300.000000 73.000000"  preserveAspectRatio="xMidYMid meet">  <g transform="translate(0.000000,73.000000) scale(0.050000,-0.050000)" fill="#fffee8" stroke="none"> <path d="M4319 1348 c-92 -94 -231 -173 -545 -310 -220 -95 -215 -102 -73 92 65 88 118 167 118 175 1 19 -251 15 -329 -6 -43 -11 -16 -15 94 -13 197 3 195 9 67 -178 -143 -208 -129 -212 209 -58 159 71 292 130 296 130 5 0 -26 -38 -69 -85 -42 -47 -100 -113 -127 -148 l-50 -62 -360 -26 c-391 -28 -2412 -50 -2588 -29 -83 10 -118 26 -150 65 -23 29 -75 86 -115 129 l-73 77 149 104 c82 57 141 107 129 111 -11 4 -91 -44 -178 -105 -204 -143 -235 -145 -179 -13 53 125 38 172 -50 154 -81 -16 -239 -112 -251 -152 -6 -20 7 -15 39 14 69 64 237 134 261 110 38 -38 -53 -199 -132 -232 -80 -33 -82 -37 -49 -90 19 -30 15 -48 -21 -99 -25 -35 -37 -63 -28 -63 9 0 36 32 61 70 108 167 269 175 365 19 83 -132 17 -126 1270 -130 727 -2 1194 5 1290 18 83 12 247 22 365 22 l215 1 -85 -110 c-55 -71 -130 -137 -212 -185 -157 -92 -383 -325 -383 -395 0 -129 175 -10 379 257 131 173 157 196 256 233 179 67 1097 281 1335 311 121 16 288 37 370 47 l150 19 -180 -9 c-343 -19 -1336 -219 -1666 -336 -95 -34 -97 -43 15 104 47 61 55 64 200 68 l151 4 -135 7 c-74 4 -135 13 -134 21 1 30 294 345 384 413 103 79 156 151 110 151 -15 0 -67 -41 -116 -92z m-723 -881 c-168 -235 -356 -398 -356 -308 0 41 88 154 188 241 56 48 215 160 228 160 4 0 -23 -42 -60 -93z"/> </g> </svg> 